<?xml version="1.0" encoding="UTF-8" standalone="no"?>
<svg
   xmlns:dc="http://purl.org/dc/elements/1.1/"
   xmlns:cc="http://creativecommons.org/ns#"
   xmlns:rdf="http://www.w3.org/1999/02/22-rdf-syntax-ns#"
   xmlns:svg="http://www.w3.org/2000/svg"
   xmlns="http://www.w3.org/2000/svg"
   xmlns:sodipodi="http://sodipodi.sourceforge.net/DTD/sodipodi-0.dtd"
   xmlns:inkscape="http://www.inkscape.org/namespaces/inkscape"
   version="1.1"
   id="Layer_1"
   x="0px"
   y="0px"
   viewBox="0 0 328.6 66.3"
   enable-background="new 0 0 328.6 66.3"
   xml:space="preserve"
   sodipodi:docname="tbb-logo.svg"
   inkscape:version="0.92.2 (5c3e80d, 2017-08-06)"><metadata
     id="metadata1177"><rdf:RDF><cc:Work
         rdf:about=""><dc:format>image/svg+xml</dc:format><dc:type
           rdf:resource="http://purl.org/dc/dcmitype/StillImage" /></cc:Work></rdf:RDF></metadata><defs
     id="defs1175" /><sodipodi:namedview
     pagecolor="#ffffff"
     bordercolor="#666666"
     borderopacity="1"
     objecttolerance="10"
     gridtolerance="10"
     guidetolerance="10"
     inkscape:pageopacity="0"
     inkscape:pageshadow="2"
     inkscape:window-width="1916"
     inkscape:window-height="1037"
     id="namedview1173"
     showgrid="false"
     inkscape:zoom="2.186549"
     inkscape:cx="168.79494"
     inkscape:cy="36.696549"
     inkscape:window-x="0"
     inkscape:window-y="18"
     inkscape:window-maximized="0"
     inkscape:current-layer="g1099" /><g
     id="g1170"><g
       id="g1099"><g
         transform="matrix(0.34430464,0,0,0.45424661,-83.472839,-113.69093)"
         id="g36"><path
           d="m 692.606,310.394 h 2.218 v 82.385 h -2.112 v -59.254 l 0.317,-18.272 -28.835,77.526 h -2.112 l -28.835,-77.526 0.317,18.272 v 59.254 h -2.113 v -82.385 h 2.219 l 29.468,79.428 z"
           id="path18"
           inkscape:connector-curvature="0" /><path
           d="m 755.032,310.394 v 2.112 H 713.84 v 37.179 h 35.911 v 2.112 H 713.84 v 38.869 h 41.192 v 2.112 h -43.306 v -82.385 h 43.306 z"
           id="path20"
           inkscape:connector-curvature="0" /><path
           d="m 766.124,331.518 v -1.056 c 0,-12.886 10.984,-20.702 24.715,-20.702 17.217,0 24.927,9.718 24.927,25.455 v 2.641 h -2.112 c 0,-18.378 -7.499,-25.983 -22.392,-25.983 h -0.634 c -11.936,0 -22.181,7.183 -22.181,18.062 v 1.057 c 0,10.562 6.231,16.054 23.131,18.061 18.062,2.112 24.716,9.718 24.716,21.441 v 1.057 c 0,14.259 -11.091,21.863 -25.35,21.863 -17.005,0 -25.349,-10.562 -25.349,-25.982 v -1.057 h 2.112 c 0,16.477 8.344,24.927 22.92,24.927 h 0.634 c 13.097,0 22.92,-7.077 22.92,-19.329 v -1.056 c 0,-12.041 -6.865,-17.745 -23.659,-19.857 -17.956,-2.22 -24.398,-9.085 -24.398,-19.542 z"
           id="path22"
           inkscape:connector-curvature="0" /><path
           d="m 827.386,331.518 v -1.056 c 0,-12.886 10.984,-20.702 24.715,-20.702 17.217,0 24.927,9.718 24.927,25.455 v 2.641 h -2.112 c 0,-18.378 -7.499,-25.983 -22.392,-25.983 h -0.634 c -11.936,0 -22.181,7.183 -22.181,18.062 v 1.057 c 0,10.562 6.231,16.054 23.131,18.061 18.062,2.112 24.716,9.718 24.716,21.441 v 1.057 c 0,14.259 -11.091,21.863 -25.35,21.863 -17.005,0 -25.349,-10.562 -25.349,-25.982 v -1.057 h 2.112 c 0,16.477 8.344,24.927 22.92,24.927 h 0.634 c 13.097,0 22.92,-7.077 22.92,-19.329 v -1.056 c 0,-12.041 -6.865,-17.745 -23.659,-19.857 -17.956,-2.22 -24.398,-9.085 -24.398,-19.542 z"
           id="path24"
           inkscape:connector-curvature="0" /><path
           d="m 934.593,310.394 v 2.112 H 893.4 v 37.179 h 35.911 v 2.112 H 893.4 v 38.869 h 41.192 v 2.112 h -43.306 v -82.385 h 43.307 z"
           id="path26"
           inkscape:connector-curvature="0" /><path
           d="m 996.91,373.767 v -63.373 h 2.113 v 82.385 h -2.641 l -46.052,-79.321 0.106,15.948 v 63.373 h -2.113 v -82.385 h 2.641 l 46.052,79.321 z"
           id="path28"
           inkscape:connector-curvature="0" /><path
           d="m 1014.341,353.698 v -4.225 c 0,-28.729 10.034,-39.714 27.462,-39.714 17.428,0 23.765,10.879 23.765,27.778 v 2.43 h -2.112 c 0,-19.646 -6.231,-28.096 -21.336,-28.096 h -0.634 c -15.421,0 -25.032,10.14 -25.032,37.602 v 4.225 c 0,27.462 9.506,37.602 26.194,37.602 h 0.634 c 10.245,0 17.005,-3.803 20.174,-7.816 v -26.827 h -16.794 v -2.113 h 18.906 v 29.892 c -3.38,4.33 -10.351,8.978 -22.603,8.978 -18.695,-0.002 -28.624,-10.986 -28.624,-39.716 z"
           id="path30"
           inkscape:connector-curvature="0" /><path
           d="m 1125.247,310.394 v 2.112 h -41.192 v 37.179 h 35.911 v 2.112 h -35.911 v 38.869 h 41.192 v 2.112 h -43.306 v -82.385 h 43.306 z"
           id="path32"
           inkscape:connector-curvature="0" /><path
           d="m 1141.092,392.778 h -2.113 v -82.385 h 20.386 c 11.195,0 23.342,4.542 23.342,22.181 v 2.112 c 0,13.309 -6.971,19.224 -15.104,21.229 l 15.104,36.862 h -2.323 l -14.893,-36.439 c -2.007,0.423 -4.119,0.528 -6.126,0.528 h -18.272 v 35.912 z m 18.166,-38.023 c 8.661,0 21.23,-2.746 21.23,-20.174 v -1.901 c 0,-17.428 -12.569,-20.174 -21.23,-20.174 h -18.166 v 42.249 z"
           id="path34"
           inkscape:connector-curvature="0" /></g></g><g
       id="g1105"><g
         id="g1103"><rect
           x="120.4"
           y="6.2"
           fill="#494949"
           width="3"
           height="58"
           id="rect1101" /></g></g><g
       id="g1168"><g
         id="g1160"><g
           id="layer3_17_"
           transform="translate(-92,-63.999774)"><g
             id="layer5_17_"><g
               id="path2554_28_"><g
                 id="g1109"><path
                   fill="#68B044"
                   d="M152.1,68.8l-1.7,6.8c2.4-4.8,6.3-8.4,10.7-11.6c-3.2,3.8-6.2,7.5-8,11.3c3.1-4.3,7.2-6.7,11.8-8.2         c-6.2,5.5-11,11.4-14.8,17.3l-3-1.3C147.7,78.3,149.5,73.5,152.1,68.8L152.1,68.8z"
                   id="path1107" /></g></g><g
               id="path2534_7_"><g
                 id="g1114"><path
                   fill="#F5F8DE"
                   d="M144.2,81.8l5.6,2.3c0,1.4-0.1,5.8,0.8,7.1c9.4,12.1,7.8,36.2-1.9,36.8c-14.7,0-20.4-10-20.4-19.2         c0-8.4,10.1-14,16.1-18.9C146,88.6,145.7,85.6,144.2,81.8L144.2,81.8z"
                   id="path1112" /></g></g><g
               id="path2536_18_"><g
                 id="g1119"><path
                   fill="#7E4798"
                   d="M149.9,84l2,1c-0.2,1.3,0.1,4.3,1.4,5.1c5.9,3.7,11.5,7.7,13.7,11.7c7.8,14.1-5.5,27.2-17,25.9         c6.2-4.6,8.1-14.1,5.7-24.5c-1-4.1-2.4-7.7-5.1-11.9C149.6,89.4,150,86.9,149.9,84L149.9,84z"
                   id="path1117" /></g></g></g><g
             id="layer4_17_"><g
               id="path2540_18_"><g
                 id="g1125"><path
                   fill="#010101"
                   d="M147.6,90.8c-0.4,2.2-0.9,6.2-2.8,7.6c-0.8,0.6-1.6,1.1-2.5,1.7c-3.4,2.3-6.9,4.5-8.4,10.2         c-0.3,1.2,0,2.5,0.2,3.7c0.9,3.4,3.3,7.2,5.2,9.3c0,0.1,0.4,0.3,0.4,0.4c1.6,1.9,2.1,2.4,8,3.7l-0.1,0.7         c-3.6-1-6.5-1.8-8.4-4c0,0-0.3-0.4-0.3-0.4c-2-2.3-4.4-6.1-5.3-9.7c-0.3-1.4-0.6-2.5-0.2-4c1.6-5.8,5.2-8.1,8.7-10.5         c0.8-0.5,1.8-1,2.5-1.6C146,96.8,146.8,93.5,147.6,90.8L147.6,90.8z"
                   id="path1123" /></g></g><g
               id="path2542_18_"><g
                 id="g1130"><path
                   fill="#010101"
                   d="M149.1,99.9c0,2.5-0.2,3.7,0.4,5.5c0.4,1,1.7,2.5,2.1,3.9c0.5,1.9,1.1,3.9,1,5.2c0,1.4-0.1,4.1-0.7,7         c-0.5,2.4-1.6,4.4-3.4,5.5c-1.9-0.4-4.1-1-5.4-2.2c-2.5-2.2-4.8-5.9-5.1-9.1c-0.2-2.6,2.2-6.5,5.6-8.4         c2.9-1.7,3.5-3.6,4.1-6.6c-0.9,2.7-1.7,4.9-4.4,6.3c-4,2.1-6.1,5.6-5.9,9c0.3,4.3,2,7.2,5.4,9.5c1.4,1,4.1,2.1,5.8,2.3v-0.2         c1.3-0.2,2.9-2.3,3.7-5.1c0.7-2.5,1-5.8,0.9-7.8c0-1.2-0.6-3.8-1.5-6.1c-0.5-1.3-1.3-2.6-1.9-3.5         C149.4,104.2,149.4,102.2,149.1,99.9z"
                   id="path1128" /></g></g><g
               id="path2544_18_"><g
                 id="g1135"><path
                   fill="#010101"
                   d="M148.7,109.7c0,1.7,0.7,3.8,1,6c0.2,1.6,0.1,3.3,0.1,4.7c0,1.7-0.6,4.6-1.4,6.1         c-0.7-0.3-1-0.7-1.5-1.3c-0.6-0.8-1-1.6-1.3-2.6c-0.3-0.7-0.6-1.5-0.8-2.5c-0.2-1.4-0.1-3.7,1.5-6c1.2-1.8,1.5-2,2-4         c-0.6,1.9-1,2-2.3,3.6c-1.5,1.7-1.7,4.2-1.7,6.3c0,0.9,0.3,1.8,0.7,2.7c0.4,1,0.7,1.9,1.2,2.6c0.8,1.2,1.8,1.8,2.3,1.9         c0,0,0,0,0,0c0,0,0,0,0,0v-0.1c0.9-1,1.5-2.1,1.7-3.1c0.2-1.2,0.3-2.5,0.4-4c0.1-1.2,0-2.9-0.3-4.6         C149.8,113.4,149,111.2,148.7,109.7L148.7,109.7z"
                   id="path1133" /></g></g><g
               id="path2550_18_"><g
                 id="g1140"><path
                   fill="#010101"
                   d="M149,88.7c0,2.5,0.2,7.1,0.9,8.9c0.2,0.6,2,3.3,3.2,6.6c0.9,2.3,1,4.4,1.2,5         c0.6,2.7-0.1,7.3-1.1,11.6c-0.5,2.3-2.1,5.2-4,6.4l-0.4,0.7c1,0,3.6-2.6,4.5-5.7c1.5-5.3,2.1-7.8,1.4-13.7         c-0.1-0.6-0.3-2.5-1.2-4.6c-1.3-3.2-3.2-6.2-3.5-6.9C149.7,96,149.1,91.7,149,88.7L149,88.7z"
                   id="path1138" /></g></g><g
               id="path2552_18_"><g
                 id="g1145"><path
                   fill="#010101"
                   d="M149.9,84.3c-0.1,2.5-0.2,4.6,0.3,6.4c0.5,2.1,3.2,5,4.3,8.4c2.1,6.5,1.6,15,0,21.6         c-0.6,2.3-3.3,5.7-6,6.8l2,0.5c1.1,0,3.9-2.7,5-5.7c1.8-4.7,2.1-10.3,1.4-16.3c0-0.6-1-5.7-1.9-7.8c-1.3-3.2-3.3-5.4-4.1-7.4         c-0.6-1.5-0.8-5.4-0.4-6.3L149.9,84.3z"
                   id="path1143" /></g></g></g></g><g
           id="path2528_14_"><g
             id="g1152"><path
               fill="#7E4798"
               d="M2.7,6.2H41c1.4,0,2.7,1.2,2.7,2.7v11.3c0,1.5-1.2,2.7-2.7,2.7h-7.9c-1.8,0-2.5,1-2.5,2.1v37       c0,1.2-1,2.2-2.2,2.2h-13c-1.2,0-2.1-1-2.1-2.2V24.7c0-1.1-1-1.8-1.9-1.8H2.7c-1.5,0-2.7-1.2-2.7-2.7V8.9       C0,7.4,1.2,6.2,2.7,6.2z"
               id="path1150" /></g></g><g
           id="path2532_14_"><g
             id="g1157"><path
               fill="#7E4798"
               d="M100.9,21.2h3.4c1.2,0,2.2,1,2.2,2.2v12.1c0,1.6,0.1,2.2-1.8,2.2c-3.8,0-5.5,2-5.5,4.2v20.5       c0,1-0.9,1.8-2,1.8H85.1c-1.1,0-2-0.8-2-1.8V39.1c0-0.4,0-1,0-1.3c0.7-8.6,7.4-15.5,16-16.4C99.4,21.3,100.5,21.2,100.9,21.2       L100.9,21.2z"
               id="path1155" /></g></g></g><g
         id="g1166"><g
           id="g1164"><path
             fill="#010101"
             d="M72,32.8c-2.1-1.9-4.6-3.4-7.3-4.9c-1.2-0.7-4.9-3.5-3.6-7.6l-9.3-3.8l-0.6,0.5c3.1,5.6,1.5,8.5,0,9.6      c-3.1,2.1-7.6,4.8-9.9,7.2c-4.3,4.4-5.6,8.7-5.2,14.3c0.4,7.2,5.6,13.1,12.6,15.5c3.1,1,5.9,1.1,9,1.1c5.1,0,10.3-1.3,14-4.5      c4-3.3,6.4-8.3,6.4-13.5C78.1,41.2,75.9,36.3,72,32.8z M70.6,58.9c-3.4,2.9-9.7,4.8-13,4.7c-3.7-0.2-7.3-0.8-10.4-2.3      c-5.6-2.7-9.3-8.5-9.5-13.3c-0.5-9.7,4.1-12.5,8.4-16c2.4-2,5.8-3,7.7-6.5c0.4-0.8,0.6-2.5,0.1-4.2c-0.2-0.6-1.1-2.8-1.4-3.2      l7,3.1c-0.9,3.2,1.8,6.5,3.9,7.7c2.1,1.2,5.5,3.4,7.5,5.3c3.6,3.2,5.5,7.7,5.5,12.5C76.3,51.2,74.3,55.8,70.6,58.9z"
             id="path1162" /></g></g></g></g></svg>